<svg xmlns="http://www.w3.org/2000/svg" viewBox="0 0 485.62 390.64"><defs><style>.cls-1{isolation:isolate;}.cls-2{fill:#5bdeb7;}.cls-3{fill:#24c0f1;}.cls-4{fill:#3e81e4;}.cls-5,.cls-6,.cls-7{fill:none;stroke-linejoin:round;stroke-width:30px;}.cls-5{stroke:#5bdeb7;}.cls-6{stroke:#24c0f1;}.cls-6,.cls-7{mix-blend-mode:multiply;}.cls-7{stroke:#3e81e4;}</style></defs><title>лого+текст</title><g class="cls-1"><g id="Лого"><g id="Рисунок"><circle class="cls-2" cx="135.19" cy="92.16" r="33.02"/><circle class="cls-3" cx="241.19" cy="92.16" r="33.02"/><circle class="cls-4" cx="347.19" cy="92.16" r="33.02"/><path class="cls-5" d="M61,227.4c0-38.53,32.51-69.76,72.6-69.76s72.6,31.23,72.6,69.76"/><path class="cls-6" d="M167.56,227.4c0-38.53,32.5-69.76,72.6-69.76s72.6,31.23,72.6,69.76"/><path class="cls-7" d="M274.12,227.4c0-38.53,32.5-69.76,72.6-69.76s72.6,31.23,72.6,69.76"/></g><g id="Текст"><path class="cls-2" d="M45.09,256.61h20.3v59.71h29v17H45.09Z"/><path class="cls-2" d="M102.68,256.85c0-5.9,4.72-10.15,11.32-10.15s11.33,4.25,11.33,10.15S120.61,267,114,267,102.68,262.75,102.68,256.85Zm1.18,17.46h20.29v59H103.86Z"/><path class="cls-2" d="M131.47,275l9-.71h29v15.81h-38Zm7.78-1.42c0-12.62,5.9-23.83,23.37-23.83a37.69,37.69,0,0,1,12.51,2.12l-3.54,14.87a17.51,17.51,0,0,0-5.9-1.18c-3.78,0-6.14,1.77-6.14,7.32v60.41h-20.3Z"/><path class="cls-2" d="M171.82,303.81c0-19.11,13.93-30.91,28.32-30.91,17.46,0,25.72,12.74,25.72,28.55A42.68,42.68,0,0,1,225,310H191.41c1.89,7.08,7.08,9.44,13.69,9.44,4,0,7.78-1.18,12-3.54l6.61,12a39.71,39.71,0,0,1-21.48,6.85C185,334.73,171.82,323.4,171.82,303.81Zm36.82-7.08c0-4.48-1.89-8.49-8-8.49-4.48,0-8.26,2.59-9.44,8.49Z"/><path class="cls-4" d="M236.48,256.61h50v17H256.78v14.64h25.49v17H256.78v28.08h-20.3Z"/><path class="cls-4" d="M290.53,303.81c0-19.11,13.92-30.91,28.32-30.91,17.46,0,25.72,12.74,25.72,28.55a42.68,42.68,0,0,1-.82,8.5H310.12c1.88,7.08,7.08,9.44,13.68,9.44,4,0,7.79-1.18,12-3.54l6.61,12A39.71,39.71,0,0,1,321,334.73C303.74,334.73,290.53,323.4,290.53,303.81Zm36.81-7.08c0-4.48-1.88-8.49-8-8.49-4.48,0-8.26,2.59-9.44,8.49Z"/><path class="cls-4" d="M350.47,303.81c0-19.11,13.92-30.91,28.32-30.91,17.46,0,25.72,12.74,25.72,28.55a42.68,42.68,0,0,1-.82,8.5H370.06c1.89,7.08,7.08,9.44,13.69,9.44,4,0,7.78-1.18,12-3.54l6.61,12a39.71,39.71,0,0,1-21.48,6.85C363.69,334.73,350.47,323.4,350.47,303.81Zm36.82-7.08c0-4.48-1.89-8.49-8-8.49-4.48,0-8.26,2.59-9.44,8.49Z"/><path class="cls-4" d="M413.48,312.54V251.19h20.3v62.06c0,4,1.88,5.19,3.3,5.19a7.42,7.42,0,0,0,2.12-.23l2.36,14.86a24.92,24.92,0,0,1-9.91,1.66C418,334.73,413.48,325.76,413.48,312.54Z"/></g></g></g></svg>