<svg id="Лого" xmlns="http://www.w3.org/2000/svg" viewBox="0 0 396.47 88.03"><defs><style>.cls-1{fill:#5bdeb7;}.cls-2{fill:#3e81e4;}</style></defs><title>текст</title><g id="Текст"><path class="cls-1" d="M45.09,256.61h20.3v59.71h29v17H45.09Z" transform="translate(-45.09 -246.7)"/><path class="cls-1" d="M102.68,256.85c0-5.9,4.72-10.15,11.32-10.15s11.33,4.25,11.33,10.15S120.61,267,114,267,102.68,262.75,102.68,256.85Zm1.18,17.46h20.29v59H103.86Z" transform="translate(-45.09 -246.7)"/><path class="cls-1" d="M131.47,275l9-.71h29v15.81h-38Zm7.78-1.42c0-12.62,5.9-23.83,23.37-23.83a37.69,37.69,0,0,1,12.51,2.12l-3.54,14.87a17.51,17.51,0,0,0-5.9-1.18c-3.78,0-6.14,1.77-6.14,7.32v60.41h-20.3Z" transform="translate(-45.09 -246.7)"/><path class="cls-1" d="M171.82,303.81c0-19.11,13.93-30.91,28.32-30.91,17.46,0,25.72,12.74,25.72,28.55A42.68,42.68,0,0,1,225,310H191.41c1.89,7.08,7.08,9.44,13.69,9.44,4,0,7.78-1.18,12-3.54l6.61,12a39.71,39.71,0,0,1-21.48,6.85C185,334.73,171.82,323.4,171.82,303.81Zm36.82-7.08c0-4.48-1.89-8.49-8-8.49-4.48,0-8.26,2.59-9.44,8.49Z" transform="translate(-45.09 -246.7)"/><path class="cls-2" d="M236.48,256.61h50v17H256.78v14.64h25.49v17H256.78v28.08h-20.3Z" transform="translate(-45.09 -246.7)"/><path class="cls-2" d="M290.53,303.81c0-19.11,13.92-30.91,28.32-30.91,17.46,0,25.72,12.74,25.72,28.55a42.68,42.68,0,0,1-.82,8.5H310.12c1.88,7.08,7.08,9.44,13.68,9.44,4,0,7.79-1.18,12-3.54l6.61,12A39.71,39.71,0,0,1,321,334.73C303.74,334.73,290.53,323.4,290.53,303.81Zm36.81-7.08c0-4.48-1.88-8.49-8-8.49-4.48,0-8.26,2.59-9.44,8.49Z" transform="translate(-45.09 -246.7)"/><path class="cls-2" d="M350.47,303.81c0-19.11,13.92-30.91,28.32-30.91,17.46,0,25.72,12.74,25.72,28.55a42.68,42.68,0,0,1-.82,8.5H370.06c1.89,7.08,7.08,9.44,13.69,9.44,4,0,7.78-1.18,12-3.54l6.61,12a39.71,39.71,0,0,1-21.48,6.85C363.69,334.73,350.47,323.4,350.47,303.81Zm36.82-7.08c0-4.48-1.89-8.49-8-8.49-4.48,0-8.26,2.59-9.44,8.49Z" transform="translate(-45.09 -246.7)"/><path class="cls-2" d="M413.48,312.54V251.19h20.3v62.06c0,4,1.88,5.19,3.3,5.19a7.42,7.42,0,0,0,2.12-.23l2.36,14.86a24.92,24.92,0,0,1-9.91,1.66C418,334.73,413.48,325.76,413.48,312.54Z" transform="translate(-45.09 -246.7)"/></g></svg>